<svg width="40" height="40" viewBox="0 0 40 40" fill="none" xmlns="http://www.w3.org/2000/svg">
<path d="M15.349 28.3751H15.849V27.8751V15.4934V14.9934H15.349H11.5015H11.0015V15.4934V27.8751V28.3751H11.5015H15.349ZM15.9756 12.0477H15.9757L15.9755 12.0368C15.9611 11.3785 15.7217 10.7697 15.2715 10.324C14.8194 9.87643 14.1877 9.62594 13.4509 9.62594C12.7157 9.62594 12.0741 9.87523 11.6134 10.3194C11.1526 10.7636 10.9005 11.3766 10.9005 12.0477C10.9005 13.3886 11.9101 14.4734 13.4015 14.4734C14.1611 14.4734 14.81 14.2178 15.2715 13.7679C15.7319 13.3189 15.9756 12.7053 15.9756 12.0477ZM29.401 28.3751H29.901V27.8751V20.5542C29.901 18.6484 29.4044 17.1796 28.5074 16.1819C27.6053 15.1785 26.3527 14.7124 24.9717 14.7124C23.3647 14.7124 22.2038 15.3621 21.456 16.0657L21.392 15.4405L21.346 14.9915H20.8946H17.5518H17.0281L17.0523 15.5146C17.1036 16.6233 17.1527 17.9071 17.1527 19.4419V27.8731V28.3731H17.6527H21.5022H22.0022V27.8731V20.7343C22.0022 20.3818 22.0313 20.1139 22.0935 19.9619L22.0936 19.9619L22.0959 19.9561C22.3308 19.3613 22.82 18.8316 23.6041 18.8316C24.1475 18.8316 24.4717 19.0311 24.6844 19.3506C24.9192 19.7032 25.0535 20.2586 25.0535 21.0133V27.8751V28.3751H25.5535H29.401ZM1.5 20C1.5 9.7826 9.7826 1.5 20 1.5C30.2174 1.5 38.5 9.7826 38.5 20C38.5 30.2174 30.2174 38.5 20 38.5C9.7826 38.5 1.5 30.2174 1.5 20Z" stroke="url(#paint0_linear_325_357)"/>
<defs>
<linearGradient id="paint0_linear_325_357" x1="0.242969" y1="14.7221" x2="34.9947" y2="14.7388" gradientUnits="userSpaceOnUse">
<stop stop-color="#00C5EB"/>
<stop offset="1" stop-color="#B544FE"/>
</linearGradient>
</defs>
</svg>
