<svg width="40" height="40" viewBox="0 0 40 40" fill="none" xmlns="http://www.w3.org/2000/svg">
<path d="M17.0934 28.197C14.9631 28.2005 12.8771 27.5887 11.0862 26.435L11.4177 25.5184C11.6837 25.551 11.9615 25.5642 12.2496 25.5642C13.4553 25.5642 14.5888 25.263 15.5797 24.7298C15.1721 24.5887 14.7859 24.3855 14.4355 24.1252C13.7254 23.5977 13.1976 22.8618 12.9257 22.0201L12.6664 21.2176L12.9838 21.278C12.8277 21.1367 12.6815 20.9833 12.5468 20.8187C11.9265 20.0606 11.5875 19.1113 11.5873 18.1318V18.1317V18.0861V17.2383L12.1892 17.5712C11.9786 17.2086 11.8212 16.8137 11.725 16.3982C11.481 15.3447 11.6487 14.2377 12.1938 13.3038L12.5578 12.68L13.0135 13.2404C13.9094 14.3419 15.0266 15.243 16.2928 15.8853C17.3755 16.4347 18.5467 16.7843 19.75 16.9193C19.6988 16.2184 19.8223 15.5121 20.1143 14.8652C20.4989 14.0129 21.1544 13.3115 21.9788 12.8701C22.8032 12.4288 23.7504 12.2721 24.673 12.4246C25.4999 12.5612 26.2657 12.9393 26.8754 13.5082C27.5645 13.3448 28.2253 13.0779 28.8352 12.7161L29.9708 12.0426L29.5663 13.2994C29.4528 13.6517 29.2949 13.985 29.0982 14.292C29.1971 14.2534 29.2951 14.2126 29.3923 14.1695L30.9673 13.4709L30.0109 14.9041C29.5258 15.631 28.9265 16.2739 28.2367 16.8084M17.0934 28.197C17.0932 28.197 17.0929 28.197 17.0926 28.197V27.697L17.0934 28.197ZM17.0934 28.197C24.3102 28.1965 28.2385 22.2096 28.2385 17.0471C28.2385 16.9694 28.2381 16.8896 28.2367 16.8084M28.2367 16.8084C28.1659 16.8632 28.0942 16.9169 28.0216 16.9694L27.7286 16.5642M28.2367 16.8084C28.2351 16.7202 28.2325 16.6303 28.2281 16.5398L27.7286 16.5642M27.7286 16.5642C28.2042 16.2204 28.6374 15.8233 29.0201 15.3812M27.7286 16.5642L29.0201 15.3812M29.0201 15.3812C29.2839 15.2957 29.5435 15.1964 29.7977 15.0836L29.595 14.6266L29.0201 15.3812ZM12.4333 26.062C12.3718 26.03 12.3105 25.9973 12.2496 25.964C12.0384 25.8485 11.831 25.7253 11.6277 25.5944L11.357 26.0147L11.2962 26.511C11.6122 26.5497 11.932 26.5642 12.2496 26.5642C12.2719 26.5642 12.2942 26.5641 12.3164 26.5639L12.4333 26.062ZM1.5 20C1.5 9.7826 9.7826 1.5 20 1.5C30.2174 1.5 38.5 9.7826 38.5 20C38.5 30.2174 30.2174 38.5 20 38.5C9.7826 38.5 1.5 30.2174 1.5 20Z" stroke="url(#paint0_linear_325_354)"/>
<defs>
<linearGradient id="paint0_linear_325_354" x1="0.242969" y1="14.7221" x2="34.9947" y2="14.7388" gradientUnits="userSpaceOnUse">
<stop stop-color="#00C5EB"/>
<stop offset="1" stop-color="#B544FE"/>
</linearGradient>
</defs>
</svg>
